<?xml version="1.0" encoding="UTF-8"?>
<svg id="Layer_1" data-name="Layer 1" xmlns="http://www.w3.org/2000/svg" xmlns:xlink="http://www.w3.org/1999/xlink" viewBox="0 0 38.01 32.9">
  <defs>
    <style>
      .cls-1 {
        fill: #ba0086;
      }

      .cls-2 {
        fill: url(#linear-gradient-2);
      }

      .cls-3 {
        fill: #aa01aa;
      }

      .cls-4 {
        fill: url(#linear-gradient);
      }
    </style>
    <linearGradient id="linear-gradient" x1="9.68" y1="32.89" x2="9.68" y2="17.54" gradientUnits="userSpaceOnUse">
      <stop offset="0" stop-color="#8a0130" stop-opacity=".4"/>
      <stop offset="1" stop-color="#8a0130" stop-opacity=".4"/>
    </linearGradient>
    <linearGradient id="linear-gradient-2" x1="28.24" y1="32.9" x2="28.24" y2="17.56" xlink:href="#linear-gradient"/>
  </defs>
  <g>
    <path class="cls-3" d="M17.98,8.75c-.88-1.39-1.77-2.78-2.68-4.19-.91-1.4-1.82-2.78-2.72-4.13-.88-.78-3.36-.45-2.96.89.52.47,1.29,1.16,2.06,1.86,0,0,1.15,1.04,2.06,1.86,1.56,1.41,3.29,2.98,4.14,3.76.04-.01.07-.03.11-.05Z"/>
    <path class="cls-3" d="M20.08,8.82c1.34-1.19,2.69-2.38,4.03-3.57,1.31-1.17,2.62-2.34,3.93-3.51.11-.13.33-.42.28-.76-.07-.61-.92-.94-1.35-.97-.5-.05-1.27.08-1.64.43-.89,1.38-1.79,2.76-2.68,4.16-.89,1.39-1.78,2.78-2.66,4.17.03.02.06.03.09.05Z"/>
  </g>
  <g>
    <path class="cls-3" d="M7.25,17.55c-.76-.47-5.45-3.43-6.78-7.57-.19-.58-.56-1.72-.45-3.24.11-1.61.69-2.73,1.21-3.73C1.97,1.56,2.66.93,3.21.55,3.85.12,4.26.06,4.59.1c.42.06.91.31,1.12.74.16.33.13.53.08,1.03-.03.33.03.81.45,1.45.97,1.01,1.87,1.58,2.53,1.92.28.14.87.4,2.05.91,1.04.45,1.04.44,1.62.69.9.39,1.67.73,2.57,1.22.55.29,1.31.73,2.19,1.33v1.87c-.2-.16-.52-.4-.93-.69-2.27-1.58-3.65-1.83-7.12-3.47-.63-.3-2.1-1.01-3.48-2.22-.5-.44-1.1-1.03-1.35-1.94-.14-.5-.14-.95-.11-1.24-.71.65-1.36,1.59-1.8,2.46-2.59,5.21,1.81,9.57,5.82,12.25,1.17.66,2.34,1.33,3.5,1.99-1.49-.29-2.98-.58-4.47-.86Z"/>
    <g>
      <path class="cls-3" d="M11.72,18.41c-.11.03-.31.07-.55.09-.6.05-1.05-.07-1.14-.09-.72-.16-3.41.46-4.42,2.13-1.46,2.41.35,4.97-.02,7.59-.18,1.27-.76,2.46-1.65,3.35,2.81-.41,6.72-1.44,10.45-4.15.06-.04.9-.76,2.08-1.71.31-.24.56-.45.71-.57v2.05c-1.08.76-2.02,1.36-2.76,1.81-.95.57-1.84,1.11-3.09,1.7-.78.36-1.44.63-1.93.81l-5.19,1.44s-.16.03-.33.03h-.09c-.88-.04-1.31-.57-1.31-.57,0,0,0-.01-.02-.02,0,0-.27-.31-.3-.81-.03-.54.72-1.03,1.22-1.82.42-.66.5-1.28.58-1.88.1-.71-.01-.96-.31-3.02-.28-1.91-.28-2.35-.2-2.85.13-.91.45-1.56.51-1.68.88-1.76,2.66-2.48,3.27-2.69,1.49.29,2.98.58,4.47.86Z"/>
      <path class="cls-4" d="M11.72,18.41c-.11.03-.31.07-.55.09-.6.05-1.05-.07-1.14-.09-.72-.16-3.41.46-4.42,2.13-1.46,2.41.35,4.97-.02,7.59-.18,1.27-.76,2.46-1.65,3.35,2.81-.41,6.72-1.44,10.45-4.15.06-.04.9-.76,2.08-1.71.31-.24.56-.45.71-.57v2.05c-1.08.76-2.02,1.36-2.76,1.81-.95.57-1.84,1.11-3.09,1.7-.78.36-1.44.63-1.93.81l-5.19,1.44s-.16.03-.33.03h-.09c-.88-.04-1.31-.57-1.31-.57,0,0,0-.01-.02-.02,0,0-.27-.31-.3-.81-.03-.54.72-1.03,1.22-1.82.42-.66.5-1.28.58-1.88.1-.71-.01-.96-.31-3.02-.28-1.91-.28-2.35-.2-2.85.13-.91.45-1.56.51-1.68.88-1.76,2.66-2.48,3.27-2.69,1.49.29,2.98.58,4.47.86Z"/>
    </g>
  </g>
  <g>
    <path class="cls-3" d="M26.28,18.35c1.24-.58,2.98-1.5,4.86-2.94.93-.71,1.68-1.29,2.52-2.24.71-.81,2.76-3.14,2.71-5.92-.01-.86-.23-1.68-.24-1.73-.26-.98-.68-1.68-.97-2.16-.34-.56-.68-.99-.94-1.3,0-.01-.06-.1-.17-.12-.08-.02-.15.02-.17.03-.04.11-.05.21-.05.29,0,0,0,0,0,0-.11.44-.33,1.09-.76,1.76-.88,1.36-2.09,1.98-3.37,2.64-.69.35-1.76.78-3.89,1.63-.44.17-.84.33-1.39.6-1.02.5-1.8,1.03-2.31,1.4-.57.37-1.05.69-1.39.93v-1.82c1.57-1.08,2.93-1.76,3.87-2.18,1.1-.48,2.3-.89,4.54-1.92,0,0,1.89-.86,2.67-2.1.14-.21.33-.52.41-.96.11-.59-.1-.75.03-1.16.16-.5.71-.89,1.28-.97.63-.1,1.1.22,1.21.3.73.64,1.94,1.88,2.67,3.82.22.57.66,1.78.61,3.35-.07,1.94-.86,3.32-1.46,4.35-1.73,2.96-4.22,4.71-5.81,5.62-1.49.26-2.98.52-4.46.78Z"/>
    <g>
      <path class="cls-3" d="M30.74,17.57c.41.13,1.02.36,1.66.82.32.23,1.22.89,1.75,2.05.14.3.38.93.42,2.28.08,2.88-.94,3.83-.45,5.72.14.56.41,1.17.89,1.8.33.36.67.52.76.97.17.83-.43,1.5-1.22,1.64-.71.12-1.51.25-6.06-1.39-.61-.22-1.21-.44-1.98-.79-.33-.15-1.17-.54-2.18-1.12-.95-.55-2.23-1.37-3.65-2.56.01-.7.03-1.39.04-2.09.57.58,1.46,1.4,2.63,2.25,2.55,1.85,4.92,2.68,6.47,3.21,1.02.35,2.46.78,4.23,1.1-1.38-1.39-1.87-3.32-1.65-5.25.15-1.23.65-2.39.59-3.65-.12-2.84-2.52-4.04-5.09-4.17-.46-.03-.86.1-1.25.09-.04,0-.15.02-.26-.04-.05-.03-.09-.07-.11-.1,1.49-.26,2.98-.52,4.46-.78Z"/>
      <path class="cls-2" d="M30.74,17.56c.41.13,1.02.36,1.66.82.32.23,1.22.89,1.75,2.05.14.3.38.93.42,2.28.08,2.88-.94,3.83-.45,5.72.14.56.41,1.17.89,1.8.33.36.67.52.76.97.17.83-.43,1.5-1.22,1.64-.71.12-1.51.25-6.06-1.39-.61-.22-1.21-.44-1.98-.79-.33-.15-1.17-.54-2.18-1.12-.95-.55-2.23-1.37-3.65-2.56.01-.7.03-1.39.04-2.09.57.58,1.46,1.4,2.63,2.25,2.55,1.85,4.92,2.68,6.47,3.21,1.02.35,2.46.78,4.23,1.1-1.38-1.39-1.87-3.32-1.65-5.25.15-1.23.65-2.39.59-3.65-.12-2.84-2.52-4.04-5.09-4.17-.46-.03-.86.1-1.25.09-.04,0-.15.02-.26-.04-.05-.03-.09-.07-.11-.1,1.49-.26,2.98-.52,4.46-.78Z"/>
    </g>
  </g>
  <path class="cls-1" d="M21.78,11.18c0-.09.06-.62-.22-1.15,0,0-.02-.03-.03-.06,0-.01-.87-1.27-2.46-1.33-.29,0-1.23-.04-1.99.63-.15.14-.62.56-.76,1.29-.03.17-.15.84.25,1.53.21.37.49.6.68.73-.19.18-.44.43-.72.76-.32.39-.98,1.18-1.44,2.39-.42,1.12-.47,2.05-.48,2.29-.04.97.14,1.71.32,2.36.57,2.12,1.17,3.84,1.6,4.94.54,1.42.75,1.87,1.05,2.63.1.26.21.54.34.91.22.6.38,1.1.49,1.47.22.65.43,1.31.65,1.96h.1c.44-1.37.79-2.48,1.04-3.26.22-.7.4-1.3.7-2.2.18-.54.25-.75.6-1.78.48-1.43.72-2.14.9-2.69.59-1.81.89-2.72.93-3.03.07-.48.28-2.34-.58-4.2-.41-.9-.96-1.56-1.08-1.71-.31-.37-.62-.66-.86-.87.13-.1.3-.27.47-.49.18-.24.45-.6.51-1.15Z"/>
</svg>