<svg width="49" height="38" viewBox="0 0 49 38" fill="none" xmlns="http://www.w3.org/2000/svg">
<g filter="url(#filter0_dd_3846_8273)">
<g clip-path="url(#clip0_3846_8273)">
<path d="M28.0717 15.918L26.7168 17.6714C27.2521 17.8221 27.655 18.0208 27.9169 18.1709C29.1749 18.8913 29.7601 19.9368 29.9685 20.3203C30.2072 20.7593 30.3237 21.1136 30.349 21.1928C30.6789 22.2161 30.5841 23.1151 30.4828 23.6389C31.6858 20.8754 30.7548 17.5679 28.0717 15.9187V15.918Z" fill="url(#paint0_linear_3846_8273)"/>
<path d="M30.3481 21.1933C30.3228 21.1141 30.2063 20.7598 29.9676 20.3208C29.7593 19.9373 29.1741 18.8925 27.9161 18.1714C27.6542 18.0213 27.2505 17.8226 26.7159 17.6719L26.245 18.2811L26.2414 18.3631C28.7241 19.8248 28.2828 23.3566 25.5578 24.3355C23.5489 25.0566 21.1443 23.7311 20.941 21.6622L20.8065 21.6296L18.8359 24.662V28.999H21.9596V27.1073C24.9877 28.23 28.468 27.0774 30.0964 24.3883C30.244 24.1444 30.372 23.8929 30.4827 23.638C30.5847 23.1149 30.6787 22.2159 30.3489 21.1919L30.3481 21.1933Z" fill="url(#paint1_linear_3846_8273)"/>
<path d="M19.1068 14.3262V15.9886L16.3087 20.541L15.9824 20.9779V14.3262H19.1068Z" fill="url(#paint2_linear_3846_8273)"/>
<path d="M27.4196 14.6579C25.4498 14.3911 23.4583 14.2279 21.4834 14L22.0266 15.238C19.2915 16.1022 18.2201 18.8094 16.8254 20.9727C15.9378 22.3503 15.1023 23.9342 13.5889 24.4108C13.0044 24.8346 11.5004 25.6356 9.13855 24.9228C9.13855 24.9228 6.88081 24.2218 6.01562 22.0884C6.02141 22.1238 6.02865 22.1614 6.0366 22.2016C6.0366 22.2023 6.0366 22.203 6.0366 22.2037C6.06192 22.3246 6.09737 22.4629 6.13788 22.6046C6.09737 22.4636 6.06192 22.3253 6.03733 22.2051C6.06916 22.358 6.11762 22.5393 6.17116 22.7192C6.16031 22.6817 6.14945 22.6442 6.1386 22.6067C6.16031 22.6817 6.18273 22.7574 6.20516 22.8317C6.20733 22.8394 6.21022 22.847 6.21239 22.8547C6.23265 22.9207 6.25362 22.986 6.27388 23.0478C6.26303 23.0138 6.25145 22.9783 6.23988 22.9429C6.30209 23.1374 6.36286 23.3132 6.40409 23.425C7.74672 27.0222 12.2767 28.6082 15.7555 26.7283C18.4277 25.2847 19.6062 21.8863 21.2504 19.5486C21.7503 18.8372 22.4209 18.1731 23.3157 17.9779L23.961 19.4777L27.6612 14.8128C27.7162 14.6933 27.4833 14.6669 27.4182 14.6579H27.4196Z" fill="url(#paint3_linear_3846_8273)"/>
<path d="M9.14028 24.9225C11.5022 25.6352 13.0061 24.8342 13.5906 24.4105C13.1031 24.564 12.5461 24.6029 11.8928 24.482C10.548 24.2333 9.28858 23.0655 9.12437 21.7275V14.3262H6V21.9241C6 21.9686 6.00651 22.0249 6.01664 22.0888C6.88255 24.2222 9.13956 24.9232 9.13956 24.9232L9.14028 24.9225Z" fill="url(#paint4_linear_3846_8273)"/>
<path d="M12.9961 24.5344C13.0012 24.5344 13.0071 24.5338 13.013 24.5332C13.0078 24.5332 13.002 24.5338 12.9961 24.5344Z" fill="url(#paint5_linear_3846_8273)"/>
<path d="M6.00321 21.9963C6.00321 21.9892 6.00195 21.9829 6.00195 21.9766C6.00195 21.9829 6.00258 21.9892 6.00321 21.9963Z" fill="url(#paint6_linear_3846_8273)"/>
<path d="M6.17383 22.7207C6.18468 22.7582 6.19625 22.795 6.2071 22.8319C6.19553 22.795 6.18468 22.7582 6.17383 22.7207Z" fill="url(#paint7_linear_3846_8273)"/>
<path d="M6.24103 22.9404C6.23235 22.9119 6.22295 22.8834 6.21427 22.8543C6.2121 22.8466 6.20992 22.8397 6.20703 22.832C6.21861 22.8689 6.22946 22.905 6.24103 22.9404Z" fill="url(#paint8_linear_3846_8273)"/>
<path d="M6.01625 22.0885C6.01409 22.074 6.01193 22.0595 6.00977 22.0449C6.01193 22.0588 6.01409 22.0733 6.01625 22.0885Z" fill="url(#paint9_linear_3846_8273)"/>
</g>
<path d="M39.5 16.4902C39.7832 17.5672 40.6303 18.4154 41.707 18.6992C40.6309 18.9829 39.7837 19.8301 39.5 20.9062C39.2162 19.8298 38.3686 18.9827 37.292 18.6992C38.3692 18.4156 39.2167 17.5676 39.5 16.4902ZM32.1289 9.61426C32.4273 11.9348 34.2645 13.7709 36.585 14.0693V14.3281C34.2644 14.6265 32.4273 16.4636 32.1289 18.7842H31.8711C31.5727 16.4636 29.7356 14.6265 27.415 14.3281V14.0693C29.7355 13.7709 31.5727 11.9348 31.8711 9.61426H32.1289ZM31.4189 11.5332C30.9336 12.4078 30.2086 13.1328 29.334 13.6182L28.2861 14.1992L29.334 14.7803C30.2086 15.2656 30.9336 15.9906 31.4189 16.8652L32 17.9131L32.5811 16.8652C33.0664 15.9906 33.7914 15.2656 34.666 14.7803L35.7139 14.1992L34.666 13.6182C33.7914 13.1328 33.0664 12.4078 32.5811 11.5332L32 10.4854L31.4189 11.5332ZM38.75 7.76758C38.9961 8.28487 39.4135 8.70298 39.9307 8.94922C39.4137 9.19533 38.9961 9.61296 38.75 10.1299C38.5038 9.6127 38.0856 9.19528 37.5684 8.94922C38.0859 8.70303 38.5038 8.28513 38.75 7.76758Z" stroke="url(#paint10_linear_3846_8273)" stroke-width="1.33"/>
</g>
<defs>
<filter id="filter0_dd_3846_8273" x="-1" y="3.19922" width="48" height="37.8008" filterUnits="userSpaceOnUse" color-interpolation-filters="sRGB">
<feFlood flood-opacity="0" result="BackgroundImageFix"/>
<feColorMatrix in="SourceAlpha" type="matrix" values="0 0 0 0 0 0 0 0 0 0 0 0 0 0 0 0 0 0 127 0" result="hardAlpha"/>
<feMorphology radius="1" operator="erode" in="SourceAlpha" result="effect1_dropShadow_3846_8273"/>
<feOffset dy="1"/>
<feGaussianBlur stdDeviation="1"/>
<feComposite in2="hardAlpha" operator="out"/>
<feColorMatrix type="matrix" values="0 0 0 0 0 0 0 0 0 0 0 0 0 0 0 0 0 0 0.1 0"/>
<feBlend mode="normal" in2="BackgroundImageFix" result="effect1_dropShadow_3846_8273"/>
<feColorMatrix in="SourceAlpha" type="matrix" values="0 0 0 0 0 0 0 0 0 0 0 0 0 0 0 0 0 0 127 0" result="hardAlpha"/>
<feOffset dy="1"/>
<feGaussianBlur stdDeviation="1.5"/>
<feComposite in2="hardAlpha" operator="out"/>
<feColorMatrix type="matrix" values="0 0 0 0 0 0 0 0 0 0 0 0 0 0 0 0 0 0 0.1 0"/>
<feBlend mode="normal" in2="effect1_dropShadow_3846_8273" result="effect2_dropShadow_3846_8273"/>
<feBlend mode="normal" in="SourceGraphic" in2="effect2_dropShadow_3846_8273" result="shape"/>
</filter>
<linearGradient id="paint0_linear_3846_8273" x1="31.8168" y1="22.1494" x2="26.411" y2="16.4272" gradientUnits="userSpaceOnUse">
<stop stop-color="#3B9348"/>
<stop offset="0.25" stop-color="#399246"/>
<stop offset="0.49" stop-color="#52A346"/>
<stop offset="0.75" stop-color="#80C344"/>
<stop offset="1" stop-color="#B2D34E"/>
</linearGradient>
<linearGradient id="paint1_linear_3846_8273" x1="19.1007" y1="29.2553" x2="28.9727" y2="18.9756" gradientUnits="userSpaceOnUse">
<stop stop-color="#22783C"/>
<stop offset="0.23" stop-color="#348942"/>
<stop offset="0.46" stop-color="#3F9243"/>
<stop offset="0.73" stop-color="#579F44"/>
<stop offset="1" stop-color="#589040"/>
</linearGradient>
<linearGradient id="paint2_linear_3846_8273" x1="15.9824" y1="17.6517" x2="19.1068" y2="17.6517" gradientUnits="userSpaceOnUse">
<stop stop-color="#086A37"/>
<stop offset="1" stop-color="#11B14C"/>
</linearGradient>
<linearGradient id="paint3_linear_3846_8273" x1="6.79545" y1="25.7439" x2="26.0735" y2="16.249" gradientUnits="userSpaceOnUse">
<stop stop-color="#3B9348"/>
<stop offset="0.25" stop-color="#399246"/>
<stop offset="0.49" stop-color="#52A346"/>
<stop offset="0.75" stop-color="#80C344"/>
<stop offset="1" stop-color="#B2D34E"/>
</linearGradient>
<linearGradient id="paint4_linear_3846_8273" x1="6" y1="19.7664" x2="13.5899" y2="19.7664" gradientUnits="userSpaceOnUse">
<stop stop-color="#086A37"/>
<stop offset="1" stop-color="#11B14C"/>
</linearGradient>
<linearGradient id="paint5_linear_3846_8273" x1="12.9961" y1="24.5338" x2="13.013" y2="24.5338" gradientUnits="userSpaceOnUse">
<stop stop-color="#3B9348"/>
<stop offset="0.25" stop-color="#399246"/>
<stop offset="0.49" stop-color="#52A346"/>
<stop offset="0.75" stop-color="#80C344"/>
<stop offset="1" stop-color="#B2D34E"/>
</linearGradient>
<linearGradient id="paint6_linear_3846_8273" x1="6.00195" y1="21.9864" x2="6.00321" y2="21.9864" gradientUnits="userSpaceOnUse">
<stop stop-color="#3B9348"/>
<stop offset="0.25" stop-color="#399246"/>
<stop offset="0.49" stop-color="#52A346"/>
<stop offset="0.75" stop-color="#80C344"/>
<stop offset="1" stop-color="#B2D34E"/>
</linearGradient>
<linearGradient id="paint7_linear_3846_8273" x1="6.17383" y1="22.7756" x2="6.20783" y2="22.7756" gradientUnits="userSpaceOnUse">
<stop stop-color="#3B9348"/>
<stop offset="0.25" stop-color="#399246"/>
<stop offset="0.49" stop-color="#52A346"/>
<stop offset="0.75" stop-color="#80C344"/>
<stop offset="1" stop-color="#B2D34E"/>
</linearGradient>
<linearGradient id="paint8_linear_3846_8273" x1="6.20703" y1="22.8862" x2="6.24103" y2="22.8862" gradientUnits="userSpaceOnUse">
<stop stop-color="#3B9348"/>
<stop offset="0.25" stop-color="#399246"/>
<stop offset="0.49" stop-color="#52A346"/>
<stop offset="0.75" stop-color="#80C344"/>
<stop offset="1" stop-color="#B2D34E"/>
</linearGradient>
<linearGradient id="paint9_linear_3846_8273" x1="6.00977" y1="22.0664" x2="6.01625" y2="22.0664" gradientUnits="userSpaceOnUse">
<stop stop-color="#3B9348"/>
<stop offset="0.25" stop-color="#399246"/>
<stop offset="0.49" stop-color="#52A346"/>
<stop offset="0.75" stop-color="#80C344"/>
<stop offset="1" stop-color="#B2D34E"/>
</linearGradient>
<linearGradient id="paint10_linear_3846_8273" x1="34.625" y1="6.69922" x2="34.625" y2="21.6992" gradientUnits="userSpaceOnUse">
<stop stop-color="#B2D34E"/>
<stop offset="1" stop-color="#09733A"/>
</linearGradient>
<clipPath id="clip0_3846_8273">
<rect width="25" height="15" fill="white" transform="translate(6 14)"/>
</clipPath>
</defs>
</svg>
