<svg width="49" height="38" viewBox="0 0 49 38" fill="none" xmlns="http://www.w3.org/2000/svg">
<g filter="url(#filter0_dd_3846_8255)">
<path d="M28.0717 15.918L26.7168 17.6716C27.2521 17.8223 27.655 18.0211 27.9169 18.1711C29.1749 18.8916 29.7601 19.9372 29.9684 20.3208C30.2071 20.7599 30.3236 21.1142 30.3489 21.1934C30.6788 22.2168 30.584 23.1158 30.4828 23.6397C31.6857 20.8759 30.7547 17.5681 28.0717 15.9187V15.918Z" fill="url(#paint0_linear_3846_8255)"/>
<path d="M30.3479 21.1937C30.3226 21.1145 30.2061 20.7602 29.9674 20.3211C29.7591 19.9375 29.1739 18.8926 27.9159 18.1714C27.654 18.0213 27.2504 17.8226 26.7158 17.6719L26.2449 18.2812L26.2413 18.3632C28.7239 19.825 28.2827 23.3572 25.5577 24.3362C23.5488 25.0573 21.1443 23.7317 20.941 21.6627L20.8064 21.63L18.8359 24.6627V29.0002H21.9595V27.1083C24.9876 28.2311 28.4678 27.0784 30.0962 24.389C30.2438 24.1451 30.3718 23.8936 30.4825 23.6386C30.5845 23.1154 30.6785 22.2164 30.3486 21.1923L30.3479 21.1937Z" fill="white"/>
<path d="M19.1067 14.3262V15.9888L16.3087 20.5416L15.9824 20.9787V14.3262H19.1067Z" fill="white"/>
<path d="M27.4192 14.658C25.4494 14.3912 23.4579 14.2279 21.4831 14L22.0264 15.2381C19.2912 16.1024 18.2199 18.8099 16.8252 20.9735C15.9376 22.3512 15.1021 23.9353 13.5888 24.4119C13.0043 24.8357 11.5003 25.6368 9.13849 24.924C9.13849 24.924 6.8808 24.2229 6.01562 22.0893C6.02141 22.1247 6.02865 22.1622 6.0366 22.2025C6.0366 22.2032 6.0366 22.2039 6.0366 22.2046C6.06192 22.3255 6.09737 22.4638 6.13788 22.6055C6.09737 22.4645 6.06192 22.3262 6.03733 22.206C6.06916 22.3588 6.11762 22.5402 6.17115 22.7201C6.1603 22.6826 6.14945 22.6451 6.1386 22.6076C6.1603 22.6826 6.18273 22.7583 6.20515 22.8327C6.20732 22.8403 6.21022 22.848 6.21239 22.8556C6.23264 22.9216 6.25362 22.9869 6.27387 23.0488C6.26302 23.0147 6.25145 22.9793 6.23988 22.9438C6.30209 23.1384 6.36285 23.3142 6.40408 23.426C7.74669 27.0236 12.2765 28.6097 15.7553 26.7297C18.4275 25.2859 19.6059 21.8871 21.2502 19.5492C21.75 18.8377 22.4206 18.1735 23.3154 17.9783L23.9607 19.4783L27.6608 14.8129C27.7158 14.6934 27.4829 14.667 27.4178 14.658H27.4192Z" fill="url(#paint1_linear_3846_8255)"/>
<path d="M9.14022 24.9236C11.5021 25.6364 13.006 24.8354 13.5905 24.4115C13.1029 24.5651 12.5459 24.604 11.8927 24.4831C10.5479 24.2344 9.28852 23.0665 9.12431 21.7283V14.3262H6V21.9249C6 21.9694 6.00651 22.0257 6.01664 22.0896C6.88253 24.2233 9.1395 24.9243 9.1395 24.9243L9.14022 24.9236Z" fill="white"/>
<path d="M12.9961 24.5346C13.0013 24.5346 13.0073 24.5339 13.0132 24.5332C13.008 24.5332 13.0021 24.5339 12.9961 24.5346Z" fill="url(#paint2_linear_3846_8255)"/>
<path d="M6.00336 21.9986C6.00336 21.9914 6.00195 21.985 6.00195 21.9785C6.00195 21.985 6.00266 21.9914 6.00336 21.9986Z" fill="url(#paint3_linear_3846_8255)"/>
<path d="M6.17383 22.7207C6.18468 22.7582 6.19625 22.795 6.2071 22.8319C6.19553 22.795 6.18468 22.7582 6.17383 22.7207Z" fill="url(#paint4_linear_3846_8255)"/>
<path d="M6.24103 22.9404C6.23235 22.9119 6.22295 22.8834 6.21427 22.8543C6.21209 22.8466 6.20992 22.8397 6.20703 22.832C6.21861 22.8689 6.22946 22.905 6.24103 22.9404Z" fill="white"/>
<path d="M6.01628 22.0887C6.01411 22.0741 6.01194 22.0595 6.00977 22.0449C6.01194 22.0588 6.01411 22.0734 6.01628 22.0887Z" fill="white"/>
<path d="M39.5 16.4902C39.7832 17.5672 40.6303 18.4154 41.707 18.6992C40.6309 18.9829 39.7837 19.8301 39.5 20.9062C39.2162 19.8298 38.3686 18.9827 37.292 18.6992C38.3692 18.4156 39.2167 17.5676 39.5 16.4902ZM32.1289 9.61426C32.4273 11.9348 34.2645 13.7709 36.585 14.0693V14.3281C34.2644 14.6265 32.4273 16.4636 32.1289 18.7842H31.8711C31.5727 16.4636 29.7356 14.6265 27.415 14.3281V14.0693C29.7355 13.7709 31.5727 11.9348 31.8711 9.61426H32.1289ZM31.4189 11.5332C30.9336 12.4078 30.2086 13.1328 29.334 13.6182L28.2861 14.1992L29.334 14.7803C30.2086 15.2656 30.9336 15.9906 31.4189 16.8652L32 17.9131L32.5811 16.8652C33.0664 15.9906 33.7914 15.2656 34.666 14.7803L35.7139 14.1992L34.666 13.6182C33.7914 13.1328 33.0664 12.4078 32.5811 11.5332L32 10.4854L31.4189 11.5332ZM38.75 7.76758C38.9961 8.28487 39.4135 8.70298 39.9307 8.94922C39.4137 9.19533 38.9961 9.61296 38.75 10.1299C38.5038 9.6127 38.0856 9.19528 37.5684 8.94922C38.0859 8.70303 38.5038 8.28513 38.75 7.76758Z" stroke="white" stroke-width="1.33"/>
</g>
<defs>
<filter id="filter0_dd_3846_8255" x="-1" y="3.19922" width="48" height="37.8008" filterUnits="userSpaceOnUse" color-interpolation-filters="sRGB">
<feFlood flood-opacity="0" result="BackgroundImageFix"/>
<feColorMatrix in="SourceAlpha" type="matrix" values="0 0 0 0 0 0 0 0 0 0 0 0 0 0 0 0 0 0 127 0" result="hardAlpha"/>
<feMorphology radius="1" operator="erode" in="SourceAlpha" result="effect1_dropShadow_3846_8255"/>
<feOffset dy="1"/>
<feGaussianBlur stdDeviation="1"/>
<feComposite in2="hardAlpha" operator="out"/>
<feColorMatrix type="matrix" values="0 0 0 0 0 0 0 0 0 0 0 0 0 0 0 0 0 0 0.1 0"/>
<feBlend mode="normal" in2="BackgroundImageFix" result="effect1_dropShadow_3846_8255"/>
<feColorMatrix in="SourceAlpha" type="matrix" values="0 0 0 0 0 0 0 0 0 0 0 0 0 0 0 0 0 0 127 0" result="hardAlpha"/>
<feOffset dy="1"/>
<feGaussianBlur stdDeviation="1.5"/>
<feComposite in2="hardAlpha" operator="out"/>
<feColorMatrix type="matrix" values="0 0 0 0 0 0 0 0 0 0 0 0 0 0 0 0 0 0 0.1 0"/>
<feBlend mode="normal" in2="effect1_dropShadow_3846_8255" result="effect2_dropShadow_3846_8255"/>
<feBlend mode="normal" in="SourceGraphic" in2="effect2_dropShadow_3846_8255" result="shape"/>
</filter>
<linearGradient id="paint0_linear_3846_8255" x1="28.8585" y1="15.918" x2="28.8585" y2="23.6397" gradientUnits="userSpaceOnUse">
<stop stop-color="white"/>
<stop offset="1" stop-color="#E3E3E3"/>
</linearGradient>
<linearGradient id="paint1_linear_3846_8255" x1="16.8424" y1="14" x2="16.8424" y2="27.5263" gradientUnits="userSpaceOnUse">
<stop stop-color="white"/>
<stop offset="1" stop-color="#E3E3E3"/>
</linearGradient>
<linearGradient id="paint2_linear_3846_8255" x1="12.9961" y1="24.5339" x2="13.0132" y2="24.5339" gradientUnits="userSpaceOnUse">
<stop stop-color="#3B9348"/>
<stop offset="0.25" stop-color="#399246"/>
<stop offset="0.49" stop-color="#52A346"/>
<stop offset="0.75" stop-color="#80C344"/>
<stop offset="1" stop-color="#B2D34E"/>
</linearGradient>
<linearGradient id="paint3_linear_3846_8255" x1="6.00195" y1="21.9886" x2="6.00336" y2="21.9886" gradientUnits="userSpaceOnUse">
<stop stop-color="#3B9348"/>
<stop offset="0.25" stop-color="#399246"/>
<stop offset="0.49" stop-color="#52A346"/>
<stop offset="0.75" stop-color="#80C344"/>
<stop offset="1" stop-color="#B2D34E"/>
</linearGradient>
<linearGradient id="paint4_linear_3846_8255" x1="6.17383" y1="22.7756" x2="6.20783" y2="22.7756" gradientUnits="userSpaceOnUse">
<stop stop-color="#3B9348"/>
<stop offset="0.25" stop-color="#399246"/>
<stop offset="0.49" stop-color="#52A346"/>
<stop offset="0.75" stop-color="#80C344"/>
<stop offset="1" stop-color="#B2D34E"/>
</linearGradient>
</defs>
</svg>
