<svg width="180" height="180" viewBox="0 0 180 180" fill="none" xmlns="http://www.w3.org/2000/svg">
<rect width="180" height="180" rx="12" fill="white"/>
<g clip-path="url(#clip0_3810_8240)">
<path d="M147.43 55.3965L139.301 66.2677C142.513 67.2024 144.93 68.4342 146.502 69.3646C154.049 73.8311 157.561 80.3133 158.811 82.6909C160.243 85.413 160.942 87.6097 161.094 88.1007C163.073 94.4451 162.505 100.019 161.897 103.266C169.115 86.1323 163.529 65.626 147.43 55.4008V55.3965Z" fill="url(#paint0_linear_3810_8240)"/>
<path d="M161.093 88.0966C160.941 87.6056 160.242 85.409 158.81 82.6868C157.56 80.3093 154.048 73.8313 146.5 69.3605C144.929 68.4302 142.507 67.1983 139.3 66.2637L136.474 70.041L136.452 70.5493C151.349 79.6115 148.701 101.509 132.351 107.578C120.297 112.049 105.87 103.831 104.65 91.0039L103.843 90.8015L92.0195 109.602V136.492H110.761V124.763C128.93 131.724 149.812 124.578 159.582 107.905C160.468 106.393 161.236 104.834 161.9 103.253C162.512 100.01 163.076 94.4367 161.097 88.088L161.093 88.0966Z" fill="url(#paint1_linear_3810_8240)"/>
<path d="M93.6446 45.5195V55.8265L76.856 84.0513L74.8984 86.7605V45.5195H93.6446Z" fill="url(#paint2_linear_3810_8240)"/>
<path d="M143.52 47.5789C131.701 45.9249 119.752 44.9127 107.902 43.5L111.162 51.1753C94.7508 56.5334 88.3227 73.3184 79.9544 86.7309C74.6287 95.272 69.6155 105.092 60.5354 108.047C57.0283 110.674 48.0046 115.64 33.8332 111.221C33.8332 111.221 20.2868 106.875 15.0957 93.6482C15.1304 93.8678 15.1738 94.1004 15.2216 94.3502C15.2216 94.3545 15.2216 94.3588 15.2216 94.3631C15.3735 95.1126 15.5862 95.9697 15.8292 96.8484C15.5862 95.974 15.3735 95.1169 15.2259 94.3718C15.4169 95.3193 15.7077 96.4435 16.0289 97.5591C15.9638 97.3265 15.8987 97.0939 15.8336 96.8613C15.9638 97.3265 16.0983 97.7959 16.2329 98.2568C16.2459 98.3042 16.2633 98.3516 16.2763 98.3989C16.3978 98.8081 16.5237 99.213 16.6452 99.5963C16.5801 99.3853 16.5107 99.1656 16.4412 98.946C16.8145 100.152 17.1791 101.242 17.4265 101.935C25.4823 124.238 52.6619 134.071 73.5349 122.416C89.5683 113.465 96.6389 92.3948 106.505 77.9012C109.504 73.4907 113.527 69.3731 118.896 68.1627L122.768 77.4619L144.969 48.5394C145.299 47.7985 143.902 47.6349 143.511 47.5789H143.52Z" fill="url(#paint3_linear_3810_8240)"/>
<path d="M33.8417 111.217C48.0131 115.636 57.0368 110.67 60.5438 108.042C57.6184 108.994 54.2763 109.235 50.3569 108.486C42.2881 106.944 34.7315 99.7035 33.7462 91.4079V45.5195H15V92.6268C15 92.9025 15.0391 93.2514 15.0998 93.6476C20.2953 106.875 33.8374 111.221 33.8374 111.221L33.8417 111.217Z" fill="url(#paint4_linear_3810_8240)"/>
<path d="M56.9766 108.808C57.0074 108.808 57.0426 108.805 57.0778 108.801C57.047 108.801 57.0118 108.805 56.9766 108.808Z" fill="url(#paint5_linear_3810_8240)"/>
<path d="M15.0251 93.0813C15.0251 93.0376 15.0176 92.9983 15.0176 92.959C15.0176 92.9983 15.0213 93.0376 15.0251 93.0813Z" fill="url(#paint6_linear_3810_8240)"/>
<path d="M16.0371 97.5625C16.1022 97.7951 16.1717 98.0234 16.2368 98.2516C16.1673 98.0234 16.1022 97.7951 16.0371 97.5625Z" fill="url(#paint7_linear_3810_8240)"/>
<path d="M16.4462 98.9297C16.3941 98.7531 16.3377 98.5765 16.2856 98.3956C16.2726 98.3483 16.2595 98.3052 16.2422 98.2578C16.3116 98.4861 16.3767 98.7101 16.4462 98.9297Z" fill="url(#paint8_linear_3810_8240)"/>
<path d="M15.0995 93.6472C15.0865 93.5571 15.0735 93.467 15.0605 93.377C15.0735 93.4627 15.0865 93.5528 15.0995 93.6472Z" fill="url(#paint9_linear_3810_8240)"/>
</g>
<defs>
<linearGradient id="paint0_linear_3810_8240" x1="169.901" y1="94.0316" x2="136.34" y2="59.6523" gradientUnits="userSpaceOnUse">
<stop stop-color="#3B9348"/>
<stop offset="0.25" stop-color="#399246"/>
<stop offset="0.49" stop-color="#52A346"/>
<stop offset="0.75" stop-color="#80C344"/>
<stop offset="1" stop-color="#B2D34E"/>
</linearGradient>
<linearGradient id="paint1_linear_3810_8240" x1="93.6081" y1="138.081" x2="154.863" y2="76.3537" gradientUnits="userSpaceOnUse">
<stop stop-color="#22783C"/>
<stop offset="0.23" stop-color="#348942"/>
<stop offset="0.46" stop-color="#3F9243"/>
<stop offset="0.73" stop-color="#579F44"/>
<stop offset="1" stop-color="#589040"/>
</linearGradient>
<linearGradient id="paint2_linear_3810_8240" x1="74.8984" y1="66.1379" x2="93.6446" y2="66.1379" gradientUnits="userSpaceOnUse">
<stop stop-color="#086A37"/>
<stop offset="1" stop-color="#11B14C"/>
</linearGradient>
<linearGradient id="paint3_linear_3810_8240" x1="19.7747" y1="116.312" x2="136.894" y2="60.4889" gradientUnits="userSpaceOnUse">
<stop stop-color="#3B9348"/>
<stop offset="0.25" stop-color="#399246"/>
<stop offset="0.49" stop-color="#52A346"/>
<stop offset="0.75" stop-color="#80C344"/>
<stop offset="1" stop-color="#B2D34E"/>
</linearGradient>
<linearGradient id="paint4_linear_3810_8240" x1="15" y1="79.2488" x2="60.5395" y2="79.2488" gradientUnits="userSpaceOnUse">
<stop stop-color="#086A37"/>
<stop offset="1" stop-color="#11B14C"/>
</linearGradient>
<linearGradient id="paint5_linear_3810_8240" x1="56.9766" y1="108.805" x2="57.0778" y2="108.805" gradientUnits="userSpaceOnUse">
<stop stop-color="#3B9348"/>
<stop offset="0.25" stop-color="#399246"/>
<stop offset="0.49" stop-color="#52A346"/>
<stop offset="0.75" stop-color="#80C344"/>
<stop offset="1" stop-color="#B2D34E"/>
</linearGradient>
<linearGradient id="paint6_linear_3810_8240" x1="15.0176" y1="93.0202" x2="15.0251" y2="93.0202" gradientUnits="userSpaceOnUse">
<stop stop-color="#3B9348"/>
<stop offset="0.25" stop-color="#399246"/>
<stop offset="0.49" stop-color="#52A346"/>
<stop offset="0.75" stop-color="#80C344"/>
<stop offset="1" stop-color="#B2D34E"/>
</linearGradient>
<linearGradient id="paint7_linear_3810_8240" x1="16.0371" y1="97.9028" x2="16.2411" y2="97.9028" gradientUnits="userSpaceOnUse">
<stop stop-color="#3B9348"/>
<stop offset="0.25" stop-color="#399246"/>
<stop offset="0.49" stop-color="#52A346"/>
<stop offset="0.75" stop-color="#80C344"/>
<stop offset="1" stop-color="#B2D34E"/>
</linearGradient>
<linearGradient id="paint8_linear_3810_8240" x1="16.2422" y1="98.5938" x2="16.4462" y2="98.5938" gradientUnits="userSpaceOnUse">
<stop stop-color="#3B9348"/>
<stop offset="0.25" stop-color="#399246"/>
<stop offset="0.49" stop-color="#52A346"/>
<stop offset="0.75" stop-color="#80C344"/>
<stop offset="1" stop-color="#B2D34E"/>
</linearGradient>
<linearGradient id="paint9_linear_3810_8240" x1="15.0605" y1="93.5099" x2="15.0995" y2="93.5099" gradientUnits="userSpaceOnUse">
<stop stop-color="#3B9348"/>
<stop offset="0.25" stop-color="#399246"/>
<stop offset="0.49" stop-color="#52A346"/>
<stop offset="0.75" stop-color="#80C344"/>
<stop offset="1" stop-color="#B2D34E"/>
</linearGradient>
<clipPath id="clip0_3810_8240">
<rect width="150" height="93" fill="white" transform="translate(15 43.5)"/>
</clipPath>
</defs>
</svg>
