<svg width="180" height="55" viewBox="0 0 180 55" fill="none" xmlns="http://www.w3.org/2000/svg">
<g clip-path="url(#clip0_3573_14441)">
<path d="M79.4578 7.03516L74.5801 13.4644C76.5072 14.0171 77.9578 14.7457 78.9005 15.2959C83.4293 17.9373 85.5361 21.7709 86.2861 23.177C87.1455 24.7869 87.5648 26.086 87.656 26.3763C88.8435 30.1284 88.5024 33.4246 88.1378 35.3452C92.4686 25.2123 89.117 13.0848 79.4578 7.0377V7.03516Z" fill="url(#paint0_linear_3573_14441)"/>
<path d="M87.6568 26.3748C87.5657 26.0845 87.1464 24.7854 86.287 23.1755C85.5369 21.7694 83.4301 17.9384 78.9013 15.2944C77.9586 14.7442 76.5054 14.0156 74.5809 13.4629L72.8855 15.6968L72.8725 15.9974C81.8103 21.3568 80.2217 34.307 70.4115 37.896C63.1795 40.5401 54.523 35.6799 53.7912 28.0942L53.3068 27.9745L46.2129 39.0932V54.9956H57.458V48.0595C68.3594 52.1758 80.8884 47.95 86.7505 38.0896C87.2818 37.1955 87.7428 36.2734 88.1412 35.3386C88.5084 33.4205 88.8469 30.1244 87.6594 26.3698L87.6568 26.3748Z" fill="url(#paint1_linear_3573_14441)"/>
<path d="M47.1872 1.19531V7.29086L37.114 23.9829L35.9395 25.5851V1.19531H47.1872Z" fill="url(#paint2_linear_3573_14441)"/>
<path d="M77.111 2.41224C70.0196 1.4341 62.8501 0.835495 55.7405 0L57.6963 4.53918C47.8497 7.70795 43.9928 17.6345 38.9718 25.5666C35.7764 30.6178 32.7685 36.4255 27.3204 38.1729C25.2162 39.7267 19.802 42.6637 11.2992 40.0502C11.2992 40.0502 3.17131 37.4801 0.0566406 29.6575C0.0774746 29.7874 0.103517 29.925 0.132164 30.0727C0.132164 30.0753 0.132164 30.0778 0.132164 30.0804C0.223312 30.5236 0.35092 31.0305 0.496758 31.5501C0.35092 31.033 0.223312 30.5261 0.134768 30.0854C0.249355 30.6458 0.423839 31.3107 0.616553 31.9704C0.577489 31.8329 0.538425 31.6953 0.499362 31.5578C0.577489 31.8329 0.65822 32.1105 0.738952 32.3831C0.746765 32.4111 0.757182 32.4391 0.764994 32.4671C0.837913 32.7091 0.913436 32.9485 0.986355 33.1753C0.947291 33.0504 0.905623 32.9205 0.863956 32.7906C1.08792 33.5038 1.30668 34.1483 1.45512 34.5584C6.28859 47.748 22.5964 53.5634 35.1202 46.6705C44.7402 41.3774 48.9825 28.9163 54.902 20.3448C56.7015 17.7364 59.1156 15.3013 62.3371 14.5855L64.6601 20.085L77.9808 2.98027C78.1787 2.54215 77.3401 2.44535 77.1057 2.41224H77.111Z" fill="url(#paint3_linear_3573_14441)"/>
<path d="M11.305 40.0484C19.8079 42.6618 25.2221 39.7249 27.3263 38.171C25.5711 38.734 23.5658 38.8766 21.2142 38.4334C16.3729 37.5215 11.8389 33.2396 11.2477 28.3336V1.19531H0V29.0545C0 29.2175 0.0234382 29.4238 0.0598976 29.6582C3.17718 37.4807 11.3024 40.0509 11.3024 40.0509L11.305 40.0484Z" fill="url(#paint4_linear_3573_14441)"/>
<path d="M25.1855 38.6244C25.2037 38.6244 25.2245 38.6218 25.2453 38.6191C25.2271 38.6191 25.2063 38.6218 25.1855 38.6244Z" fill="url(#paint5_linear_3573_14441)"/>
<path d="M0.0149641 29.3224C0.0149641 29.2965 0.00976562 29.2733 0.00976562 29.25C0.00976562 29.2733 0.0123649 29.2965 0.0149641 29.3224Z" fill="url(#paint6_linear_3573_14441)"/>
<path d="M0.623047 31.9727C0.661889 32.1102 0.70332 32.2452 0.742161 32.3802C0.70073 32.2452 0.661889 32.1102 0.623047 31.9727Z" fill="url(#paint7_linear_3573_14441)"/>
<path d="M0.865845 32.7802C0.834771 32.6757 0.801108 32.5713 0.770035 32.4643C0.762267 32.4363 0.754498 32.4108 0.744141 32.3828C0.785572 32.5178 0.824413 32.6503 0.865845 32.7802Z" fill="url(#paint8_linear_3573_14441)"/>
<path d="M0.0600774 29.6559C0.0524214 29.6026 0.0447654 29.5494 0.0371094 29.4961C0.0447654 29.5468 0.0524214 29.6001 0.0600774 29.6559Z" fill="url(#paint9_linear_3573_14441)"/>
</g>
<path d="M106.191 0L114.639 16.0059H115.041L123.589 0H139.177L123.79 27.5L139.78 55H123.79L115.041 38.6719H114.639L105.889 55H90L105.789 27.5L90.5028 0H106.191Z" fill="#0C8A40"/>
<path d="M145.204 55V0H159.183V42.9688H180V55H145.204Z" fill="#0C8A40"/>
<defs>
<linearGradient id="paint0_linear_3573_14441" x1="92.94" y1="29.8839" x2="73.1014" y2="9.26563" gradientUnits="userSpaceOnUse">
<stop stop-color="#3B9348"/>
<stop offset="0.25" stop-color="#399246"/>
<stop offset="0.49" stop-color="#52A346"/>
<stop offset="0.75" stop-color="#80C344"/>
<stop offset="1" stop-color="#B2D34E"/>
</linearGradient>
<linearGradient id="paint1_linear_3573_14441" x1="47.166" y1="55.9356" x2="83.384" y2="18.9071" gradientUnits="userSpaceOnUse">
<stop stop-color="#22783C"/>
<stop offset="0.23" stop-color="#348942"/>
<stop offset="0.46" stop-color="#3F9243"/>
<stop offset="0.73" stop-color="#579F44"/>
<stop offset="1" stop-color="#589040"/>
</linearGradient>
<linearGradient id="paint2_linear_3573_14441" x1="35.9395" y1="13.389" x2="47.1872" y2="13.389" gradientUnits="userSpaceOnUse">
<stop stop-color="#086A37"/>
<stop offset="1" stop-color="#11B14C"/>
</linearGradient>
<linearGradient id="paint3_linear_3573_14441" x1="2.86401" y1="43.0611" x2="72.7565" y2="9.26313" gradientUnits="userSpaceOnUse">
<stop stop-color="#3B9348"/>
<stop offset="0.25" stop-color="#399246"/>
<stop offset="0.49" stop-color="#52A346"/>
<stop offset="0.75" stop-color="#80C344"/>
<stop offset="1" stop-color="#B2D34E"/>
</linearGradient>
<linearGradient id="paint4_linear_3573_14441" x1="0" y1="21.1427" x2="27.3237" y2="21.1427" gradientUnits="userSpaceOnUse">
<stop stop-color="#086A37"/>
<stop offset="1" stop-color="#11B14C"/>
</linearGradient>
<linearGradient id="paint5_linear_3573_14441" x1="25.1855" y1="38.6218" x2="25.2453" y2="38.6218" gradientUnits="userSpaceOnUse">
<stop stop-color="#3B9348"/>
<stop offset="0.25" stop-color="#399246"/>
<stop offset="0.49" stop-color="#52A346"/>
<stop offset="0.75" stop-color="#80C344"/>
<stop offset="1" stop-color="#B2D34E"/>
</linearGradient>
<linearGradient id="paint6_linear_3573_14441" x1="0.00976563" y1="29.2862" x2="0.0149641" y2="29.2862" gradientUnits="userSpaceOnUse">
<stop stop-color="#3B9348"/>
<stop offset="0.25" stop-color="#399246"/>
<stop offset="0.49" stop-color="#52A346"/>
<stop offset="0.75" stop-color="#80C344"/>
<stop offset="1" stop-color="#B2D34E"/>
</linearGradient>
<linearGradient id="paint7_linear_3573_14441" x1="0.623047" y1="32.1739" x2="0.744751" y2="32.1739" gradientUnits="userSpaceOnUse">
<stop stop-color="#3B9348"/>
<stop offset="0.25" stop-color="#399246"/>
<stop offset="0.49" stop-color="#52A346"/>
<stop offset="0.75" stop-color="#80C344"/>
<stop offset="1" stop-color="#B2D34E"/>
</linearGradient>
<linearGradient id="paint8_linear_3573_14441" x1="0.744141" y1="32.5815" x2="0.865845" y2="32.5815" gradientUnits="userSpaceOnUse">
<stop stop-color="#3B9348"/>
<stop offset="0.25" stop-color="#399246"/>
<stop offset="0.49" stop-color="#52A346"/>
<stop offset="0.75" stop-color="#80C344"/>
<stop offset="1" stop-color="#B2D34E"/>
</linearGradient>
<linearGradient id="paint9_linear_3573_14441" x1="0.0371094" y1="29.5747" x2="0.0600774" y2="29.5747" gradientUnits="userSpaceOnUse">
<stop stop-color="#3B9348"/>
<stop offset="0.25" stop-color="#399246"/>
<stop offset="0.49" stop-color="#52A346"/>
<stop offset="0.75" stop-color="#80C344"/>
<stop offset="1" stop-color="#B2D34E"/>
</linearGradient>
<clipPath id="clip0_3573_14441">
<rect width="90" height="55" fill="white"/>
</clipPath>
</defs>
</svg>
