<svg width="64" height="64" viewBox="0 0 64 64" fill="none" xmlns="http://www.w3.org/2000/svg">
<rect width="64" height="64" rx="12" fill="white"/>
<g clip-path="url(#clip0_3810_8210)">
<path d="M51.1434 20.4648L48.4336 24.0886C49.5042 24.4001 50.3101 24.8108 50.8338 25.1209C53.3498 26.6097 54.5203 28.7705 54.937 29.563C55.4144 30.4704 55.6473 31.2026 55.698 31.3662C56.3577 33.4811 56.1682 35.3389 55.9656 36.4214C58.3717 30.7101 56.5096 23.8747 51.1434 20.4663V20.4648Z" fill="url(#paint0_linear_3810_8210)"/>
<path d="M55.6982 31.3655C55.6476 31.2019 55.4146 30.4697 54.9372 29.5623C54.5205 28.7698 53.3501 26.6104 50.8341 25.1202C50.3103 24.8101 49.503 24.3994 48.4338 24.0879L47.492 25.347L47.4847 25.5164C52.4502 28.5372 51.5676 35.8364 46.1175 37.8593C42.0997 39.3496 37.2906 36.6102 36.884 32.3346L36.6149 32.2672L32.6738 38.5341V47.4973H38.9211V43.5878C44.9774 45.9079 51.938 43.5261 55.1947 37.9684C55.4899 37.4645 55.746 36.9447 55.9673 36.4178C56.1713 35.3367 56.3594 33.4789 55.6997 31.3627L55.6982 31.3655Z" fill="url(#paint1_linear_3810_8210)"/>
<path d="M33.2155 17.1738V20.6095L27.6193 30.0178L26.9668 30.9208V17.1738H33.2155Z" fill="url(#paint2_linear_3810_8210)"/>
<path d="M49.8392 17.8596C45.8996 17.3083 41.9165 16.9709 37.9668 16.5L39.0533 19.0584C33.5829 20.8445 31.4402 26.4395 28.6508 30.9103C26.8756 33.7573 25.2045 37.0308 22.1778 38.0157C21.0088 38.8914 18.0009 40.5468 13.2771 39.0738C13.2771 39.0738 8.76162 37.6251 7.03125 33.2161C7.04282 33.2893 7.05729 33.3668 7.07321 33.4501C7.07321 33.4515 7.07321 33.4529 7.07321 33.4544C7.12385 33.7042 7.19474 33.9899 7.27576 34.2828C7.19474 33.9913 7.12385 33.7056 7.07465 33.4573C7.13831 33.7731 7.23525 34.1478 7.34231 34.5197C7.32061 34.4422 7.29891 34.3646 7.27721 34.2871C7.32061 34.4422 7.36546 34.5986 7.41031 34.7523C7.41465 34.7681 7.42044 34.7839 7.42478 34.7996C7.46529 34.936 7.50725 35.071 7.54776 35.1988C7.52606 35.1284 7.50291 35.0552 7.47976 34.982C7.60418 35.384 7.72571 35.7472 7.80818 35.9784C10.4934 43.4125 19.5533 46.6903 26.511 42.8052C31.8555 39.8218 34.2123 32.7983 37.5009 27.9671C38.5006 26.4969 39.8418 25.1244 41.6315 24.7209L42.922 27.8206L50.3224 18.1798C50.4324 17.9328 49.9665 17.8783 49.8363 17.8596H49.8392Z" fill="url(#paint3_linear_3810_8210)"/>
<path d="M13.2806 39.0728C18.0044 40.5459 21.0123 38.8905 22.1813 38.0147C21.2061 38.332 20.0921 38.4124 18.7856 38.1626C16.096 37.6486 13.5772 35.2351 13.2487 32.47V17.1738H7V32.8763C7 32.9682 7.01302 33.0844 7.03328 33.2165C8.7651 37.6256 13.2791 39.0743 13.2791 39.0743L13.2806 39.0728Z" fill="url(#paint4_linear_3810_8210)"/>
<path d="M20.9922 38.2701C21.0025 38.2701 21.0142 38.2688 21.0259 38.2676C21.0157 38.2676 21.0039 38.2688 20.9922 38.2701Z" fill="url(#paint5_linear_3810_8210)"/>
<path d="M7.00837 33.0271C7.00837 33.0125 7.00586 32.9994 7.00586 32.9863C7.00586 32.9994 7.00711 33.0125 7.00837 33.0271Z" fill="url(#paint6_linear_3810_8210)"/>
<path d="M7.3457 34.5215C7.36741 34.599 7.39055 34.6751 7.41226 34.7512C7.38911 34.6751 7.36741 34.599 7.3457 34.5215Z" fill="url(#paint7_linear_3810_8210)"/>
<path d="M7.48206 34.9759C7.4647 34.9171 7.44589 34.8582 7.42853 34.7979C7.42419 34.7821 7.41985 34.7677 7.41406 34.752C7.43721 34.828 7.45891 34.9027 7.48206 34.9759Z" fill="url(#paint8_linear_3810_8210)"/>
<path d="M7.0325 33.2151C7.02818 33.1851 7.02385 33.155 7.01953 33.125C7.02385 33.1536 7.02818 33.1836 7.0325 33.2151Z" fill="url(#paint9_linear_3810_8210)"/>
</g>
<defs>
<linearGradient id="paint0_linear_3810_8210" x1="58.6335" y1="33.3432" x2="47.4467" y2="21.8835" gradientUnits="userSpaceOnUse">
<stop stop-color="#3B9348"/>
<stop offset="0.25" stop-color="#399246"/>
<stop offset="0.49" stop-color="#52A346"/>
<stop offset="0.75" stop-color="#80C344"/>
<stop offset="1" stop-color="#B2D34E"/>
</linearGradient>
<linearGradient id="paint1_linear_3810_8210" x1="33.2034" y1="48.027" x2="53.6215" y2="27.4512" gradientUnits="userSpaceOnUse">
<stop stop-color="#22783C"/>
<stop offset="0.23" stop-color="#348942"/>
<stop offset="0.46" stop-color="#3F9243"/>
<stop offset="0.73" stop-color="#579F44"/>
<stop offset="1" stop-color="#589040"/>
</linearGradient>
<linearGradient id="paint2_linear_3810_8210" x1="26.9668" y1="24.0466" x2="33.2155" y2="24.0466" gradientUnits="userSpaceOnUse">
<stop stop-color="#086A37"/>
<stop offset="1" stop-color="#11B14C"/>
</linearGradient>
<linearGradient id="paint3_linear_3810_8210" x1="8.5909" y1="40.7708" x2="47.6307" y2="22.163" gradientUnits="userSpaceOnUse">
<stop stop-color="#3B9348"/>
<stop offset="0.25" stop-color="#399246"/>
<stop offset="0.49" stop-color="#52A346"/>
<stop offset="0.75" stop-color="#80C344"/>
<stop offset="1" stop-color="#B2D34E"/>
</linearGradient>
<linearGradient id="paint4_linear_3810_8210" x1="7" y1="28.4169" x2="22.1798" y2="28.4169" gradientUnits="userSpaceOnUse">
<stop stop-color="#086A37"/>
<stop offset="1" stop-color="#11B14C"/>
</linearGradient>
<linearGradient id="paint5_linear_3810_8210" x1="20.9922" y1="38.2688" x2="21.0259" y2="38.2688" gradientUnits="userSpaceOnUse">
<stop stop-color="#3B9348"/>
<stop offset="0.25" stop-color="#399246"/>
<stop offset="0.49" stop-color="#52A346"/>
<stop offset="0.75" stop-color="#80C344"/>
<stop offset="1" stop-color="#B2D34E"/>
</linearGradient>
<linearGradient id="paint6_linear_3810_8210" x1="7.00586" y1="33.0067" x2="7.00837" y2="33.0067" gradientUnits="userSpaceOnUse">
<stop stop-color="#3B9348"/>
<stop offset="0.25" stop-color="#399246"/>
<stop offset="0.49" stop-color="#52A346"/>
<stop offset="0.75" stop-color="#80C344"/>
<stop offset="1" stop-color="#B2D34E"/>
</linearGradient>
<linearGradient id="paint7_linear_3810_8210" x1="7.3457" y1="34.6349" x2="7.4137" y2="34.6349" gradientUnits="userSpaceOnUse">
<stop stop-color="#3B9348"/>
<stop offset="0.25" stop-color="#399246"/>
<stop offset="0.49" stop-color="#52A346"/>
<stop offset="0.75" stop-color="#80C344"/>
<stop offset="1" stop-color="#B2D34E"/>
</linearGradient>
<linearGradient id="paint8_linear_3810_8210" x1="7.41406" y1="34.8639" x2="7.48206" y2="34.8639" gradientUnits="userSpaceOnUse">
<stop stop-color="#3B9348"/>
<stop offset="0.25" stop-color="#399246"/>
<stop offset="0.49" stop-color="#52A346"/>
<stop offset="0.75" stop-color="#80C344"/>
<stop offset="1" stop-color="#B2D34E"/>
</linearGradient>
<linearGradient id="paint9_linear_3810_8210" x1="7.01953" y1="33.1693" x2="7.0325" y2="33.1693" gradientUnits="userSpaceOnUse">
<stop stop-color="#3B9348"/>
<stop offset="0.25" stop-color="#399246"/>
<stop offset="0.49" stop-color="#52A346"/>
<stop offset="0.75" stop-color="#80C344"/>
<stop offset="1" stop-color="#B2D34E"/>
</linearGradient>
<clipPath id="clip0_3810_8210">
<rect width="50" height="31" fill="white" transform="translate(7 16.5)"/>
</clipPath>
</defs>
</svg>
